<mxfile host="app.diagrams.net" modified="2023-11-21T12:34:04.218Z" agent="Mozilla/5.0 (Macintosh; Intel Mac OS X 10_15_7) AppleWebKit/605.1.15 (KHTML, like Gecko) Version/17.0 Safari/605.1.15" version="22.1.3" etag="vFX8YLhdmenzfSrUfqTU" type="github">
  <diagram name="Page-1" id="iSjHDQ6oXIFrgXwEUt7d">
    <mxGraphModel>
      <root>
        <mxCell id="0" />
        <mxCell id="1" parent="0" />
      </root>
    </mxGraphModel>
  </diagram>
</mxfile>
